# 3ds Max Wavefront OBJ Exporter v0.97b - (c)2007 guruware
# File Created: 10.04.2017 16:00:49

#
# object body
#

v  -0.0000 0.0335 -0.3787
v  0.1000 0.0295 -0.3567
v  0.1000 0.1519 -0.5395
v  -0.0000 0.1726 -0.5740
v  -0.1000 0.0295 -0.3567
v  -0.1000 0.1519 -0.5395
v  -0.0000 0.0623 -0.2533
v  0.1000 0.0549 -0.2394
v  -0.1000 0.0549 -0.2394
v  -0.0000 0.1561 -0.1088
v  0.1000 0.1374 -0.1041
v  -0.1000 0.1374 -0.1041
v  0.0000 0.3085 0.0048
v  0.1000 0.2716 0.0021
v  -0.1000 0.2716 0.0021
v  0.0000 0.2307 0.1532
v  0.1000 0.2031 0.1410
v  -0.1000 0.2031 0.1410
v  0.0000 0.1937 0.3406
v  0.1000 0.1705 0.3164
v  -0.1000 0.1705 0.3164
v  0.0000 0.1197 0.4888
v  0.1000 0.1054 0.4551
v  -0.1000 0.1054 0.4551
v  0.1000 0.0000 -0.5000
v  -0.0000 0.0000 -0.5319
v  -0.1000 0.0000 -0.5000
v  -0.1000 0.0000 -0.3571
v  -0.1000 0.0000 -0.2143
v  -0.1000 0.0000 -0.0714
v  -0.1000 0.0000 0.0714
v  -0.1000 0.0000 0.2143
v  -0.1000 0.0000 0.3571
v  -0.1000 0.0000 0.5000
v  0.0000 0.0000 0.5368
v  0.1000 0.0000 0.5000
v  0.1000 0.0000 0.3571
v  0.1000 0.0000 0.2143
v  0.1000 0.0000 0.0714
v  0.1000 0.0000 -0.0714
v  0.1000 0.0000 -0.2143
v  0.1000 0.0000 -0.3571
v  -0.1000 -0.1519 -0.5395
v  -0.0000 -0.1726 -0.5740
v  -0.0000 -0.0335 -0.3787
v  -0.1000 -0.0295 -0.3567
v  0.1000 -0.1519 -0.5395
v  0.1000 -0.0295 -0.3567
v  -0.0000 -0.0623 -0.2533
v  -0.1000 -0.0549 -0.2394
v  0.1000 -0.0549 -0.2394
v  -0.0000 -0.1561 -0.1088
v  -0.1000 -0.1374 -0.1041
v  0.1000 -0.1374 -0.1041
v  0.0000 -0.3085 0.0048
v  -0.1000 -0.2716 0.0021
v  0.1000 -0.2716 0.0021
v  0.0000 -0.2307 0.1532
v  -0.1000 -0.2031 0.1410
v  0.1000 -0.2031 0.1410
v  0.0000 -0.1937 0.3406
v  -0.1000 -0.1705 0.3164
v  0.1000 -0.1705 0.3164
v  0.0000 -0.1197 0.4888
v  -0.1000 -0.1054 0.4551
v  0.1000 -0.1054 0.4551
# 66 vertices

vn 0.0050 0.9691 0.2468
vn 0.0155 0.9915 0.1294
vn -0.0460 0.8176 0.5739
vn 0.0057 0.8202 0.5720
vn -0.0170 0.9897 0.1425
vn 0.0211 0.8306 0.5565
vn -0.0055 0.9273 -0.3742
vn 0.1305 0.9129 -0.3867
vn -0.1182 0.9167 -0.3817
vn -0.0085 0.7289 -0.6845
vn 0.1765 0.7372 -0.6522
vn -0.1601 0.7393 -0.6541
vn -0.0000 0.9823 -0.1875
vn 0.3223 0.9143 -0.2453
vn -0.3175 0.9102 -0.2661
vn 0.0050 0.9458 0.3248
vn 0.2846 0.9079 0.3077
vn -0.2943 0.9039 0.3105
vn 0.0051 0.9443 0.3292
vn 0.2760 0.9166 0.2893
vn -0.2847 0.9149 0.2861
vn 0.0051 0.8981 0.4398
vn 0.2633 0.8733 0.4098
vn -0.2791 0.8629 0.4213
vn 0.2722 -0.2419 -0.9314
vn 0.2877 -0.2319 -0.9292
vn 0.0042 -0.2418 -0.9703
vn 0.2958 -0.2267 -0.9280
vn -0.2758 -0.2282 -0.9337
vn -0.2948 -0.2402 -0.9249
vn -1.0000 0.0000 0.0000
vn 0.0052 0.3774 0.9261
vn -0.3442 0.3680 0.8638
vn -0.3235 0.3521 0.8783
vn 0.0046 0.3773 0.9261
vn 0.3441 0.3494 0.8715
vn 0.3209 0.3713 0.8713
vn 1.0000 0.0000 -0.0000
vn 0.0460 -0.8176 0.5739
vn -0.0057 -0.8202 0.5720
vn -0.0050 -0.9691 0.2468
vn -0.0155 -0.9915 0.1294
vn -0.0211 -0.8306 0.5565
vn 0.0170 -0.9897 0.1425
vn 0.0055 -0.9273 -0.3742
vn -0.1305 -0.9129 -0.3867
vn 0.1182 -0.9167 -0.3817
vn 0.0085 -0.7289 -0.6845
vn -0.1765 -0.7372 -0.6522
vn 0.1601 -0.7393 -0.6541
vn -0.0000 -0.9823 -0.1875
vn -0.3223 -0.9143 -0.2453
vn 0.3175 -0.9102 -0.2661
vn -0.0050 -0.9458 0.3248
vn -0.2846 -0.9079 0.3077
vn 0.2943 -0.9039 0.3105
vn -0.0051 -0.9443 0.3292
vn -0.2760 -0.9166 0.2893
vn 0.2847 -0.9149 0.2861
vn -0.0051 -0.8981 0.4398
vn -0.2633 -0.8733 0.4098
vn 0.2791 -0.8629 0.4213
vn -0.2958 0.2267 -0.9280
vn -0.0042 0.2418 -0.9703
vn -0.2722 0.2419 -0.9314
vn 0.2948 0.2402 -0.9249
vn 0.2758 0.2282 -0.9337
vn 0.3235 -0.3521 0.8783
vn -0.0046 -0.3773 0.9261
vn -0.0052 -0.3774 0.9261
vn 0.3442 -0.3680 0.8638
vn -0.3209 -0.3713 0.8713
vn -0.3441 -0.3494 0.8715
# 73 vertex normals

vt 0.5000 0.1429 0.0000
vt 0.0000 0.1429 0.0000
vt 0.0000 0.0000 0.0000
vt 0.5000 0.0000 0.0000
vt 1.0000 0.1429 0.0000
vt 1.0000 0.0000 0.0000
vt 0.5000 0.2857 0.0000
vt 0.0000 0.2857 0.0000
vt 1.0000 0.2857 0.0000
vt 0.5000 0.4286 0.0000
vt 0.0000 0.4286 0.0000
vt 1.0000 0.4286 0.0000
vt 0.5000 0.5714 0.0000
vt 0.0000 0.5714 0.0000
vt 1.0000 0.5714 0.0000
vt 0.5000 0.7143 0.0000
vt 0.0000 0.7143 0.0000
vt 1.0000 0.7143 0.0000
vt 0.5000 0.8571 0.0000
vt 0.0000 0.8571 0.0000
vt 1.0000 0.8571 0.0000
vt 0.5000 1.0000 0.0000
vt 0.0000 1.0000 0.0000
vt 1.0000 1.0000 0.0000
vt 0.1429 1.0000 0.0000
vt 0.1429 0.0000 0.0000
vt 0.2857 1.0000 0.0000
vt 0.2857 0.0000 0.0000
vt 0.4286 1.0000 0.0000
vt 0.4286 0.0000 0.0000
vt 0.5714 1.0000 0.0000
vt 0.5714 0.0000 0.0000
vt 0.7143 1.0000 0.0000
vt 0.7143 0.0000 0.0000
vt 0.8571 1.0000 0.0000
vt 0.8571 0.0000 0.0000
# 36 texture coords

g body
f 1/1/1 2/2/2 3/3/3 
f 3/3/3 4/4/4 1/1/1 
f 5/5/5 1/1/1 4/4/4 
f 4/4/4 6/6/6 5/5/5 
f 7/7/7 8/8/8 2/2/2 
f 2/2/2 1/1/1 7/7/7 
f 9/9/9 7/7/7 1/1/1 
f 1/1/1 5/5/5 9/9/9 
f 10/10/10 11/11/11 8/8/8 
f 8/8/8 7/7/7 10/10/10 
f 12/12/12 10/10/10 7/7/7 
f 7/7/7 9/9/9 12/12/12 
f 13/13/13 14/14/14 11/11/11 
f 11/11/11 10/10/10 13/13/13 
f 15/15/15 13/13/13 10/10/10 
f 10/10/10 12/12/12 15/15/15 
f 16/16/16 17/17/17 14/14/14 
f 14/14/14 13/13/13 16/16/16 
f 18/18/18 16/16/16 13/13/13 
f 13/13/13 15/15/15 18/18/18 
f 19/19/19 20/20/20 17/17/17 
f 17/17/17 16/16/16 19/19/19 
f 21/21/21 19/19/19 16/16/16 
f 16/16/16 18/18/18 21/21/21 
f 22/22/22 23/23/23 20/20/20 
f 20/20/20 19/19/19 22/22/22 
f 24/24/24 22/22/22 19/19/19 
f 19/19/19 21/21/21 24/24/24 
f 4/22/25 3/23/25 25/3/26 
f 25/3/26 26/4/27 4/22/28 
f 6/24/29 4/22/29 26/4/27 
f 26/4/27 27/6/30 6/24/30 
f 5/25/31 6/23/31 27/3/31 
f 27/3/31 28/26/31 5/25/31 
f 9/27/31 5/25/31 28/26/31 
f 28/26/31 29/28/31 9/27/31 
f 12/29/31 9/27/31 29/28/31 
f 29/28/31 30/30/31 12/29/31 
f 15/31/31 12/29/31 30/30/31 
f 30/30/31 31/32/31 15/31/31 
f 18/33/31 15/31/31 31/32/31 
f 31/32/31 32/34/31 18/33/31 
f 21/35/31 18/33/31 32/34/31 
f 32/34/31 33/36/31 21/35/31 
f 24/24/31 21/35/31 33/36/31 
f 33/36/31 34/6/31 24/24/31 
f 22/22/32 24/23/33 34/3/33 
f 34/3/34 35/4/35 22/22/32 
f 23/24/36 22/22/32 35/4/35 
f 35/4/35 36/6/37 23/24/37 
f 20/25/38 23/23/38 36/3/38 
f 36/3/38 37/26/38 20/25/38 
f 17/27/38 20/25/38 37/26/38 
f 37/26/38 38/28/38 17/27/38 
f 14/29/38 17/27/38 38/28/38 
f 38/28/38 39/30/38 14/29/38 
f 11/31/38 14/29/38 39/30/38 
f 39/30/38 40/32/38 11/31/38 
f 8/33/38 11/31/38 40/32/38 
f 40/32/38 41/34/38 8/33/38 
f 2/35/38 8/33/38 41/34/38 
f 41/34/38 42/36/38 2/35/38 
f 3/24/38 2/35/38 42/36/38 
f 42/36/38 25/6/38 3/24/38 
f 43/3/39 44/4/40 45/1/41 
f 45/1/41 46/2/42 43/3/39 
f 44/4/40 47/6/43 48/5/44 
f 48/5/44 45/1/41 44/4/40 
f 46/2/42 45/1/41 49/7/45 
f 49/7/45 50/8/46 46/2/42 
f 45/1/41 48/5/44 51/9/47 
f 51/9/47 49/7/45 45/1/41 
f 50/8/46 49/7/45 52/10/48 
f 52/10/48 53/11/49 50/8/46 
f 49/7/45 51/9/47 54/12/50 
f 54/12/50 52/10/48 49/7/45 
f 53/11/49 52/10/48 55/13/51 
f 55/13/51 56/14/52 53/11/49 
f 52/10/48 54/12/50 57/15/53 
f 57/15/53 55/13/51 52/10/48 
f 56/14/52 55/13/51 58/16/54 
f 58/16/54 59/17/55 56/14/52 
f 55/13/51 57/15/53 60/18/56 
f 60/18/56 58/16/54 55/13/51 
f 59/17/55 58/16/54 61/19/57 
f 61/19/57 62/20/58 59/17/55 
f 58/16/54 60/18/56 63/21/59 
f 63/21/59 61/19/57 58/16/54 
f 62/20/58 61/19/57 64/22/60 
f 64/22/60 65/23/61 62/20/58 
f 61/19/57 63/21/59 66/24/62 
f 66/24/62 64/22/60 61/19/57 
f 27/3/63 26/4/64 44/22/63 
f 44/22/65 43/23/65 27/3/65 
f 26/4/64 25/6/66 47/24/66 
f 47/24/67 44/22/67 26/4/64 
f 25/3/38 42/26/38 48/25/38 
f 48/25/38 47/23/38 25/3/38 
f 42/26/38 41/28/38 51/27/38 
f 51/27/38 48/25/38 42/26/38 
f 41/28/38 40/30/38 54/29/38 
f 54/29/38 51/27/38 41/28/38 
f 40/30/38 39/32/38 57/31/38 
f 57/31/38 54/29/38 40/30/38 
f 39/32/38 38/34/38 60/33/38 
f 60/33/38 57/31/38 39/32/38 
f 38/34/38 37/36/38 63/35/38 
f 63/35/38 60/33/38 38/34/38 
f 37/36/38 36/6/38 66/24/38 
f 66/24/38 63/35/38 37/36/38 
f 36/3/68 35/4/69 64/22/70 
f 64/22/70 66/23/71 36/3/71 
f 35/4/69 34/6/72 65/24/72 
f 65/24/73 64/22/70 35/4/69 
f 34/3/31 33/26/31 62/25/31 
f 62/25/31 65/23/31 34/3/31 
f 33/26/31 32/28/31 59/27/31 
f 59/27/31 62/25/31 33/26/31 
f 32/28/31 31/30/31 56/29/31 
f 56/29/31 59/27/31 32/28/31 
f 31/30/31 30/32/31 53/31/31 
f 53/31/31 56/29/31 31/30/31 
f 30/32/31 29/34/31 50/33/31 
f 50/33/31 53/31/31 30/32/31 
f 29/34/31 28/36/31 46/35/31 
f 46/35/31 50/33/31 29/34/31 
f 28/36/31 27/6/31 43/24/31 
f 43/24/31 46/35/31 28/36/31 
# 128 faces

